<svg version="1.1" xmlns="http://www.w3.org/2000/svg" xmlns:xlink="http://www.w3.org/1999/xlink" width="150" height="39" viewBox="0,0,256,66.54688"><g fill="none" fill-rule="none" stroke="none" stroke-width="1" stroke-linecap="butt" stroke-linejoin="miter" stroke-miterlimit="10" stroke-dasharray="" stroke-dashoffset="0" font-family="none" font-weight="none" font-size="none" text-anchor="none" style="mix-blend-mode: normal"><g transform="translate(0.00003,0.72824) scale(1.70667,1.70667)"><path d="M23.64,36.4541v0.3147c0,0.4546 -0.0342,0.9773 -2.2715,1.2374c-2.2373,0.2601 -11.82868,0.1124 -13.73848,-0.2216c-0.47293,-0.0827 -0.89734,-0.1335 -1.27275,-0.1784c-1.14056,-0.1365 -1.82878,-0.2189 -2.05107,-0.9773c-0.16798,-0.5731 0.07633,-1.2366 0.49754,-2.3807c0.19511,-0.5299 0.42817,-1.163 0.6758,-1.9379c2.86037,-8.9635 4.52986,-13.7326 5.00856,-14.8982c0.4904,-1.1657 0.9924,-2.069 1.5061,-2.7101c0.5137,-0.6527 1.185,-0.9791 2.0139,-0.9791c0.8406,0 1.5411,0.3205 2.1015,0.9616c0.5604,0.6295 1.2843,2.0224 2.1716,4.1787c1.6928,4.0913 3.0938,8.2077 4.2029,12.9401c0.1168,0.4896 0.3386,1.2997 0.6655,2.4303c0.3269,1.1306 0.4904,1.8708 0.4904,2.2205zM17.2368,27.9218v-0.1224c0,-0.0699 -0.0759,-0.4313 -0.2277,-1.084c-0.1401,-0.6644 -0.2452,-1.1132 -0.3152,-1.3463c-0.0584,-0.2331 -0.2627,-1.1132 -0.613,-2.6401c-0.3385,-1.5386 -0.718,-2.7567 -1.1383,-3.6542c-0.4203,-0.9092 -0.6713,-1.3638 -0.753,-1.3638c-0.07,0 -0.3094,0.4604 -0.718,1.3813c-2.0081,4.5808 -3.0122,7.5356 -3.0122,8.8644v0.1049c0,0.3264 0.5371,0.4896 1.6112,0.4896h0.753l0.1576,-0.0175l1.5236,0.0175h0.7531l0.1401,-0.0175h0.2802l0.5604,-0.0349c0.6654,0 0.9982,-0.1924 0.9982,-0.577z" fill="#9e937f" fill-rule="evenodd"></path><path d="M11.1238,0.7508v-0.12223c0,-0.38415 0.3365,-0.57622 1.0094,-0.57622l0.5666,-0.03492l0.2834,0l0.1416,-0.01746l0.7615,0l1.5406,0.01746l0.1594,-0.01746l0.7615,0c1.0861,0 1.6291,0.16297 1.6291,0.48892v0.10477c0,1.32705 -1.0152,4.278 -3.0458,8.85284c-0.4132,0.91961 -0.6552,1.37941 -0.7261,1.37941c-0.0826,0 -0.3364,-0.454 -0.7614,-1.36195c-0.425,-0.89634 -0.8087,-2.11281 -1.1511,-3.6494c-0.3541,-1.52494 -0.5607,-2.40383 -0.6197,-2.63664c-0.0709,-0.23282 -0.1771,-0.68099 -0.3188,-1.34452c-0.1535,-0.65188 -0.2302,-1.01275 -0.2302,-1.08259z" fill="#f4bf4a" fill-rule="nonzero"></path><path d="M0.7508,17.3809h-0.12223c-0.38415,0 -0.57622,-0.3413 -0.57622,-1.024l-0.03492,-0.5749v-0.2874l-0.01746,-0.1437l0,-0.7725l0.01746,-1.563l-0.01746,-0.1617l0,-0.7725c0,-1.1018 0.16297,-1.6527 0.48892,-1.6527h0.10477c1.32706,0 4.27801,1.03 8.85285,3.0899c0.91961,0.4192 1.37941,0.6648 1.37941,0.7366c0,0.0838 -0.454,0.3413 -1.36195,0.7725c-0.89634,0.4312 -2.11281,0.8204 -3.6494,1.1677c-1.52494,0.3593 -2.40383,0.5689 -2.63664,0.6288c-0.23282,0.0719 -0.68099,0.1797 -1.34452,0.3234c-0.65188,0.1557 -1.01275,0.2335 -1.08259,0.2335z" fill="#69c480" fill-rule="nonzero"></path><path d="M27.7684,11.0246h0.12c0.3771,0 0.5657,0.3413 0.5657,1.024l0.0343,0.5749v0.2874l0.0171,0.1437v0.7725l-0.0171,1.563l0.0171,0.1617v0.7725c0,1.1018 -0.16,1.6528 -0.4799,1.6528h-0.1029c-1.3027,0 -4.1995,-1.03 -8.6904,-3.09c-0.9027,-0.4192 -1.3541,-0.6647 -1.3541,-0.7366c0,-0.0838 0.4456,-0.3413 1.337,-0.7725c0.8799,-0.4311 2.074,-0.8204 3.5824,-1.1677c1.497,-0.3593 2.3597,-0.5689 2.5883,-0.6288c0.2285,-0.0718 0.6685,-0.1796 1.3198,-0.3234c0.6399,-0.1557 0.9942,-0.2335 1.0627,-0.2335z" fill="#a578e1" fill-rule="nonzero"></path><path d="M105.932,34.2114c0,0.5496 -0.26,0.8244 -0.779,0.8244c-0.171,0 -0.388,-0.1393 -0.652,-0.418c-0.256,-0.2787 -0.438,-0.7045 -0.547,-1.2774c-0.109,-0.5729 -0.233,-2.1831 -0.372,-4.8308c-0.132,-2.6553 -0.303,-3.983 -0.512,-3.983c-0.202,0 -0.846,1.2193 -1.932,3.6579c-1.078,2.4386 -1.7067,3.7895 -1.8851,4.0527c-0.3491,0.511 -0.7331,0.7665 -1.152,0.7665c-0.419,0 -0.7525,-0.2091 -1.0008,-0.6271c-0.2482,-0.4181 -0.5818,-1.1767 -1.0007,-2.2761c-1.4119,-3.6927 -2.2692,-5.5391 -2.5717,-5.5391c-0.1784,0 -0.4577,1.4554 -0.8378,4.3663c-0.3724,2.9031 -0.5663,4.3895 -0.5819,4.4592c-0.2405,0.9212 -0.5508,1.3819 -0.9309,1.3819c-0.4965,0 -0.7447,-0.2749 -0.7447,-0.8245c0,-0.1781 0.0388,-0.7858 0.1163,-1.8232c0.0854,-1.0451 0.1397,-1.9083 0.163,-2.5896c0.0232,-0.689 0.062,-1.5909 0.1163,-2.7057c0.0621,-1.1225 0.0931,-2.6863 0.0931,-4.6914c0,-0.5574 0.097,-1.0026 0.2909,-1.3354c0.2715,-0.4723 0.6672,-0.7084 1.1869,-0.7084c0.5198,0 1.0202,0.3445 1.5012,1.0335c0.4887,0.6813 1.2994,2.1328 2.432,4.3547c1.1404,2.2141 1.7571,3.3211 1.8502,3.3211c0.1009,0 0.6904,-1.0257 1.7688,-3.0773c1.0859,-2.0592 1.8079,-3.3676 2.1639,-3.925c0.737,-1.1457 1.405,-1.7186 2.002,-1.7186c0.737,0 1.214,0.3097 1.431,0.929c0.217,0.6116 0.326,2.2915 0.326,5.0398l-0.081,4.6101c0,0.8671 0.023,1.6297 0.069,2.2877c0.047,0.6503 0.07,1.0722 0.07,1.2658z" fill="#9e937f" fill-rule="nonzero"></path><path d="M111.448,27.4413v0.7664c0,0.8826 0.101,1.6954 0.303,2.4386c0.387,1.409 1.043,2.3767 1.966,2.9031c0.543,0.3175 1.133,0.4762 1.769,0.4762h0.361c0.62,0 1.179,-0.1626 1.675,-0.4878c1.49,-0.9677 2.238,-2.8992 2.246,-5.7946v-0.7664c0,-1.7187 -0.341,-3.1238 -1.024,-4.2153c-0.302,-0.4878 -0.698,-0.8787 -1.187,-1.1729c-0.481,-0.2942 -0.981,-0.4413 -1.501,-0.4413h-0.535c-0.605,0 -1.172,0.1703 -1.699,0.511c-0.528,0.3406 -0.943,0.7393 -1.245,1.1961c-0.303,0.4567 -0.567,1.0915 -0.792,1.9044c-0.225,0.8051 -0.337,1.6993 -0.337,2.6825zM122.351,26.9303v0.7897c0,1.1999 -0.147,2.338 -0.442,3.4141c-0.295,1.0683 -0.721,1.9354 -1.28,2.6011c-0.558,0.6581 -1.257,1.1961 -2.094,1.6142c-0.83,0.418 -1.68,0.6271 -2.549,0.6271h-0.779c-0.823,-0.0078 -1.63,-0.1897 -2.421,-0.5458c-1.613,-0.7355 -2.711,-2.1561 -3.293,-4.2618c-0.248,-0.898 -0.372,-1.9703 -0.372,-3.2167l0.011,-0.2554c0.008,-1.1381 0.159,-2.2606 0.454,-3.3677c0.605,-2.2373 1.761,-3.7469 3.468,-4.5288c0.783,-0.3561 1.629,-0.5342 2.537,-0.5342h0.512c0.806,0 1.625,0.1781 2.455,0.5342c1.582,0.689 2.688,2.0051 3.316,3.9482c0.318,0.9755 0.477,2.0361 0.477,3.1818z" fill="#9e937f" fill-rule="nonzero"></path><path d="M134.128,33.7352c0.884,0 1.326,0.3291 1.326,0.9871v0.2206c0,0.3562 -0.159,0.5845 -0.477,0.6852c-0.318,0.1006 -0.896,0.1509 -1.734,0.1509h-2.397l-0.268,-0.0116c-2.614,0 -4.1,-0.12 -4.456,-0.36c-0.357,-0.2399 -0.536,-1.1031 -0.536,-2.5895v-1.8348l0.012,-0.2671l0.023,-1.3238v-2.1251l0.012,-0.5226v-1.2889l-0.012,-0.7665c0,-0.2554 0,-0.5109 0,-0.7664l-0.011,-0.7664v-0.7548l-0.024,-1.5213c0,-0.6348 0.055,-1.0335 0.163,-1.196c0.117,-0.1704 0.38,-0.2555 0.792,-0.2555c0.411,0 0.725,0.0658 0.942,0.1974c0.217,0.1239 0.365,0.3755 0.442,0.7548c0.086,0.3794 0.128,2.4464 0.128,6.2011c0,3.7547 0.136,5.9107 0.408,6.4681c0.147,0.3019 0.473,0.4993 0.977,0.5922c0.512,0.0929 1.334,0.1394 2.467,0.1394l0.756,-0.0116c0.171,-0.0078 0.338,-0.0116 0.501,-0.0116l0.488,-0.0233z" fill="#9e937f" fill-rule="nonzero"></path><path d="M150,34.6647v0.209c0,0.302 -0.237,0.4529 -0.71,0.4529c-0.465,0 -0.869,-0.1935 -1.21,-0.5806c-0.334,-0.3871 -0.671,-0.9948 -1.012,-1.8232c-0.342,-0.8283 -0.594,-1.3199 -0.757,-1.4747c-0.364,-0.3407 -1.109,-0.511 -2.234,-0.511c-1.722,0 -2.828,0.1548 -3.316,0.4645c-0.295,0.1858 -0.637,0.7393 -1.024,1.6606c-0.388,0.9213 -0.609,1.4283 -0.664,1.5212c-0.31,0.4955 -0.702,0.7432 -1.175,0.7432h-0.198c-0.364,0 -0.547,-0.1819 -0.547,-0.5458c0,-0.2864 0.26,-1.2425 0.78,-2.8682c1.9,-5.9534 3.01,-9.3171 3.328,-10.0913c0.326,-0.7741 0.659,-1.3741 1.001,-1.7999c0.341,-0.4335 0.787,-0.6503 1.338,-0.6503c0.558,0 1.024,0.2129 1.396,0.6387c0.373,0.418 0.854,1.3432 1.443,2.7754c1.125,2.7173 2.056,5.6475 2.793,8.7906c0.078,0.3251 0.225,0.8632 0.442,1.6141c0.217,0.751 0.326,1.2426 0.326,1.4748z" fill="#9e937f" fill-rule="nonzero"></path><path d="M145.86,29.026v0.0814c0,0.256 -0.222,0.384 -0.665,0.384l-0.373,0.0232h-0.186l-0.093,0.0117h-0.501l-1.014,-0.0117l-0.105,0.0117h-0.501c-0.715,0 -1.072,-0.1086 -1.072,-0.3258v-0.0698c0,-0.8842 0.668,-2.8503 2.004,-5.8984c0.272,-0.6127 0.431,-0.9191 0.478,-0.9191c0.054,0 0.221,0.3025 0.501,0.9075c0.28,0.5972 0.532,1.4077 0.758,2.4315c0.233,1.016 0.369,1.6016 0.407,1.7567c0.047,0.1551 0.117,0.4537 0.21,0.8958c0.101,0.4343 0.152,0.6748 0.152,0.7213z" fill="#a578e1" fill-rule="nonzero"></path><path d="M67.7026,35.7309c-0.1398,0.2948 -0.4738,0.4421 -1.0021,0.4421c-0.5283,0 -0.8468,-0.1086 -0.9555,-0.3257c-0.1088,-0.2249 -0.1632,-0.5623 -0.1632,-1.0122c0,-0.4498 0.0272,-1.1323 0.0816,-2.0475c0.0622,-0.9152 0.0932,-2.1329 0.0932,-3.6531l0.0466,-2.0708c0.0156,-0.3878 0.0233,-0.6593 0.0233,-0.8144v-0.6515c0,-1.6598 -0.1747,-2.7146 -0.5243,-3.1644c-0.2175,-0.2792 -1.0177,-0.4189 -2.4005,-0.4189c-0.6914,0 -1.1653,-0.0698 -1.4216,-0.2094c-0.2486,-0.1473 -0.3729,-0.4071 -0.3729,-0.7794v-0.1978c0,-0.3956 0.3768,-0.6476 1.1303,-0.7562c1.4682,-0.2094 3.5385,-0.3141 6.2109,-0.3141h2.3189c0.9012,0 1.4877,0.0581 1.7596,0.1745c0.2796,0.1163 0.4195,0.3684 0.4195,0.7562c0,0.38 -0.2059,0.6554 -0.6176,0.826c-0.1942,0.0775 -0.7613,0.1706 -1.7013,0.2792c-0.94,0.1086 -1.5382,0.2986 -1.7945,0.5701c-0.4506,0.4886 -0.6759,1.7722 -0.6759,3.8508l-0.0117,0.5933l-0.0116,0.2909l-0.035,1.7683c-0.0077,0.1939 -0.0116,0.3917 -0.0116,0.5934l-0.1282,3.432l-0.0233,0.5351l-0.0117,0.8028c0,0.7058 -0.0738,1.206 -0.2214,1.5007z" fill="#9e937f" fill-rule="nonzero"></path><path d="M87.3552,34.9528v0.209c0,0.302 -0.2366,0.4529 -0.7099,0.4529c-0.4654,0 -0.8688,-0.1935 -1.2102,-0.5806c-0.3335,-0.3871 -0.671,-0.9948 -1.0123,-1.8232c-0.3414,-0.8283 -0.5935,-1.3199 -0.7564,-1.4748c-0.3646,-0.3406 -1.1094,-0.5109 -2.2342,-0.5109c-1.7222,0 -2.8277,0.1548 -3.3165,0.4645c-0.2947,0.1858 -0.6361,0.7393 -1.024,1.6606c-0.3878,0.9212 -0.6089,1.4283 -0.6632,1.5212c-0.3104,0.4955 -0.7021,0.7432 -1.1753,0.7432h-0.1979c-0.3646,0 -0.5469,-0.1819 -0.5469,-0.5458c0,-0.2864 0.2599,-1.2425 0.7797,-2.8683c1.9006,-5.9533 3.01,-9.317 3.328,-10.0912c0.3258,-0.7742 0.6594,-1.3741 1.0008,-1.7999c0.3413,-0.4336 0.7874,-0.6503 1.3382,-0.6503c0.5585,0 1.024,0.2129 1.3964,0.6387c0.3723,0.418 0.8533,1.3431 1.4429,2.7753c1.1248,2.7174 2.0558,5.6476 2.7928,8.7907c0.0775,0.3251 0.2249,0.8632 0.4421,1.6141c0.2173,0.751 0.3259,1.2426 0.3259,1.4748z" fill="#9e937f" fill-rule="nonzero"></path><path d="M60.029,35.3461v0.209c0,0.302 -0.2366,0.4529 -0.7098,0.4529c-0.4655,0 -0.8689,-0.1935 -1.2102,-0.5806c-0.3336,-0.3871 -0.6711,-0.9948 -1.0124,-1.8232c-0.3414,-0.8283 -0.5935,-1.3199 -0.7564,-1.4747c-0.3646,-0.3407 -1.1093,-0.511 -2.2342,-0.511c-1.7222,0 -2.8277,0.1548 -3.3164,0.4645c-0.2948,0.1858 -0.6362,0.7393 -1.024,1.6606c-0.3879,0.9212 -0.609,1.4283 -0.6633,1.5212c-0.3103,0.4955 -0.7021,0.7432 -1.1753,0.7432h-0.1978c-0.3646,0 -0.5469,-0.1819 -0.5469,-0.5458c0,-0.2864 0.2598,-1.2425 0.7796,-2.8682c1.9006,-5.9534 3.01,-9.3171 3.328,-10.0913c0.3259,-0.7741 0.6595,-1.3741 1.0008,-1.7999c0.3413,-0.4335 0.7874,-0.6503 1.3382,-0.6503c0.5586,0 1.024,0.2129 1.3964,0.6387c0.3723,0.418 0.8533,1.3432 1.4429,2.7754c1.1249,2.7173 2.0558,5.6475 2.7928,8.7906c0.0776,0.3251 0.225,0.8632 0.4422,1.6141c0.2172,0.751 0.3258,1.2426 0.3258,1.4748z" fill="#9e937f" fill-rule="nonzero"></path><path d="M55.8203,29.026v0.0814c0,0.256 -0.2214,0.384 -0.6642,0.384l-0.3729,0.0232h-0.1865l-0.0932,0.0117h-0.501l-1.0138,-0.0117l-0.1049,0.0117h-0.5011c-0.7147,0 -1.072,-0.1086 -1.072,-0.3258v-0.0698c0,-0.8842 0.6681,-2.8503 2.0042,-5.8984c0.2719,-0.6127 0.4312,-0.9191 0.4778,-0.9191c0.0544,0 0.2214,0.3025 0.5011,0.9075c0.2796,0.5972 0.5321,1.4077 0.7574,2.4315c0.2331,1.016 0.369,1.6016 0.4078,1.7567c0.0467,0.1551 0.1166,0.4537 0.2098,0.8958c0.101,0.4343 0.1515,0.6748 0.1515,0.7213z" fill="#69c480" fill-rule="nonzero"></path><path d="M83.1463,29.026v0.0814c0,0.256 -0.2214,0.384 -0.6642,0.384l-0.3729,0.0232h-0.1864l-0.0932,0.0117h-0.5011l-1.0138,-0.0117l-0.1049,0.0117h-0.501c-0.7147,0 -1.0721,-0.1086 -1.0721,-0.3258v-0.0698c0,-0.8842 0.6681,-2.8503 2.0043,-5.8984c0.2719,-0.6127 0.4311,-0.9191 0.4778,-0.9191c0.0543,0 0.2214,0.3025 0.501,0.9075c0.2797,0.5972 0.5322,1.4077 0.7575,2.4315c0.233,1.016 0.369,1.6016 0.4078,1.7567c0.0466,0.1551 0.1165,0.4537 0.2097,0.8958c0.101,0.4343 0.1515,0.6748 0.1515,0.7213z" fill="#f4bf4a" fill-rule="nonzero"></path><path d="M42.4428,28.274v-0.9786c0,-0.8078 -0.1207,-1.6039 -0.3621,-2.3883c-0.2336,-0.7923 -0.5374,-1.4136 -0.9112,-1.8641c-0.8021,-0.9786 -1.9664,-1.468 -3.4928,-1.468h-0.1752c-1.1214,0 -1.7639,0.1903 -1.9275,0.5709c-0.109,0.2563 -0.1635,1.367 -0.1635,3.332v5.4408l0.0117,0.3495c0,0.1165 0,0.233 0,0.3495l0.0234,0.6874l0.035,0.6874c0,0.4349 0.0857,0.7417 0.257,0.9203c0.1791,0.1709 0.588,0.2564 1.2266,0.2564h0.6658c1.5653,0 2.7452,-0.5127 3.5395,-1.5379c0.366,-0.466 0.6698,-1.0874 0.9112,-1.8641c0.2414,-0.7844 0.3621,-1.6155 0.3621,-2.4932zM37.0226,19.7576h0.7709c2.4298,0 4.256,0.6796 5.4787,2.0388c1.2305,1.3514 1.8457,3.2932 1.8457,5.8252v0.2796c0,1.1573 -0.1597,2.2952 -0.479,3.4136c-0.5762,2.0194 -1.7833,3.4252 -3.6212,4.2175c-0.9813,0.4271 -2.056,0.6407 -3.2242,0.6407h-1.5302c-1.2694,0 -2.1767,-0.1398 -2.7218,-0.4194c-0.2804,-0.1476 -0.4206,-0.5864 -0.4206,-1.3165l0.0467,-1.5145v-1.2583l-0.0116,-0.5126v-1.2583l-0.0117,-0.5009v-1.2699l-0.0117,-0.501c0,-0.1709 0,-0.3417 0,-0.5126l-0.0584,-2.9709c0,-0.2407 0,-0.4815 0,-0.7223l-0.0351,-1.2233l-0.0116,-0.2447v-0.4893l0.0116,-0.233c0,-0.6291 0.2142,-1.0097 0.6425,-1.1417c0.6931,-0.2175 1.8068,-0.3262 3.341,-0.3262z" fill="#9e937f" fill-rule="nonzero"></path></g></g></svg>