<svg version="1.1" xmlns="http://www.w3.org/2000/svg" xmlns:xlink="http://www.w3.org/1999/xlink" width="512px" height="512px" viewBox="0,0,256,256"><g fill="#9e937f" fill-rule="nonzero" stroke="none" stroke-width="1" stroke-linecap="butt" stroke-linejoin="miter" stroke-miterlimit="10" stroke-dasharray="" stroke-dashoffset="0" font-family="none" font-weight="none" font-size="none" text-anchor="none" style="mix-blend-mode: normal"><g transform="scale(0.5,0.5)"><path d="M437,0h-362c-41.35547,0 -75,33.64453 -75,75v362c0,41.35547 33.64453,75 75,75h362c41.35547,0 75,-33.64453 75,-75v-362c0,-41.35547 -33.64453,-75 -75,-75zM482,437c0,24.8125 -20.1875,45 -45,45h-362c-24.8125,0 -45,-20.1875 -45,-45v-362c0,-24.8125 20.1875,-45 45,-45h362c24.8125,0 45,20.1875 45,45zM482,437"></path><path d="M91,422h90v-212h-90zM121,240h30v152h-30zM121,240"></path><path d="M331.08594,210c-0.02734,0 -0.05859,0 -0.08594,0c-10.37109,0 -20.47266,1.73438 -30,5.10156v-5.10156h-90v212h90v-107c0,-8.26953 6.73047,-15 15,-15c8.26953,0 15,6.73047 15,15v107h90v-117.3125c0,-48.54687 -39.38281,-94.64062 -89.91406,-94.6875zM391,392h-30v-77c0,-24.8125 -20.1875,-45 -45,-45c-24.8125,0 -44.99609,20.1875 -45,44.99609v77.00391h-30v-152h30v30.01953l24.00781,-18.03125c10.44141,-7.84375 22.88672,-11.98828 35.99219,-11.98828h0.05859c31.92969,0.03125 59.94141,30.25781 59.94141,64.6875zM391,392"></path><path d="M91,180h90v-90h-90zM121,120h30v30h-30zM121,120"></path></g></g></svg>